<?xml version="1.0" encoding="UTF-8"?>
<svg width="208px" height="295px" viewBox="0 0 208 295" version="1.1" xmlns="http://www.w3.org/2000/svg" xmlns:xlink="http://www.w3.org/1999/xlink">
    <title>Buggles triste</title>
    <g id="Page-1" stroke="none" stroke-width="1" fill="none" fill-rule="evenodd">
        <g id="Buggles-triste">
            <path d="M129.885339,78.638239 C142.017829,65.54696 179.216161,19.0359182 200.281282,43.4700406 C214.073154,59.4676835 204.652651,93.6935394 197.137224,111.365028 C195.974588,114.098806 185.103099,126.991239 185.95438,133.05784 C187.748026,145.840145 196.249561,139.362244 191.694668,153.672859 C190.980712,155.915977 184.574357,165.29427 180.196228,166.588508 C178.150011,167.1934 174.379674,164.536431 173.794972,166.588508 C172.006635,172.864886 177.614273,180.349435 174.62267,186.149553 C172.919004,189.452619 166.876757,185.07262 163.481508,186.584243 C162.193764,187.157569 163.621168,189.516704 164.350888,190.722729 C166.192959,193.767162 169.873079,195.686924 171.026057,199.053293 C172.231311,202.572291 172.841365,206.965683 171.026057,210.212318 C169.74134,212.510006 165.819216,211.336175 163.481508,212.546543 C163.016172,212.787475 163.281011,213.634437 163.481508,214.118573 C168.94976,227.322633 175.409968,240.119714 180.440369,253.496713 C181.23537,255.610806 181.699626,258.17529 180.833376,260.261202 C169.484199,287.589773 109.463848,297.951552 86.3687128,293.089221 C72.4500951,290.158866 59.3213096,284.167473 46.2343313,278.595588 C6.93223694,261.862409 39.3782592,236.844879 43.3522778,210.027724 C43.9347359,206.097227 36.5503084,214.319985 32.7470355,215.47028 C30.3892718,216.183382 27.6328634,216.413365 25.3573073,215.47028 C23.8994276,214.866073 23.1608418,212.964952 22.9337623,211.403249 C22.183741,206.245099 24.4870003,200.588239 22.4931178,195.772277 C21.7809694,194.052177 19.05764,197.438909 17.1994286,197.55272 C13.6135705,197.772343 9.05757508,199.227408 6.45127451,196.754796 C-6.55609979,184.414626 7.46096204,187.187615 10.0538414,182.934039 C10.6313883,181.986583 7.60409194,183.242229 6.74900731,182.535077 C5.3045242,181.340495 3.97973542,179.618263 3.78954327,177.753488 C2.94024388,169.426373 1.42415969,160.697621 3.70022343,152.642704 C5.26003276,147.122588 13.7157555,145.019354 14.6389265,139.357866 L19.1287372,137.04746 C20.3488703,129.564807 17.2339983,121.740285 18.7238205,114.306629 C19.8362184,108.756179 40.0878448,91.9052282 41.6968834,89.1958441 C43.0589466,86.9023304 39.93179,84.097339 39.7378016,81.4369273 C39.2745889,75.0842959 39.2832858,68.681696 39.7378016,62.3284362 C40.8391428,46.9337987 48.6275163,16.9647984 66.2419755,12.8511994 C79.0697612,9.85545793 83.5614979,23.4405576 87.7918756,33.1565764 C97.7351898,55.9936453 89.0353336,71.7876901 120.161386,73.3505045 L129.885339,78.638239 Z" id="Path-Copy-8" stroke="#979797" stroke-width="1.2" fill="#FFFFFF"></path>
            <ellipse id="Oval-Copy-58" fill="#A19E9E" transform="translate(64.461045, 166.130537) rotate(13.000000) translate(-64.461045, -166.130537) " cx="64.4610453" cy="166.130537" rx="16.2" ry="12"></ellipse>
            <path d="M35.5541791,232.320836 C34.99367,234.041259 31.9880102,236.715321 30.1260747,241.690669 C27.3883806,249.006163 25.7692024,259.610489 26.9367227,265.657659 C27.1149051,266.580554 27.8521071,267.445408 28.6872247,267.837926 C36.7665586,271.635339 40.5214906,275.936596 48.5693109,279.883344 C58.04169,284.528713 71.8438497,288.716947 81.9450787,291.512442 C113.690438,300.297907 159.408257,286.791008 182.897619,264.131472 C184.613934,262.47579 183.923186,259.062724 182.897619,256.888729 C178.72234,248.03798 174.61174,238.651237 167.672927,231.858194 C165.215016,229.451918 160.768743,231.144772 157.471188,231.996454 C147.958366,234.453396 139.027619,238.898689 129.603404,241.690669 C91.01343,253.123178 73.2616539,251.613019 37.8345066,235.575284 L35.5541791,232.320836 Z" id="Path-14-Copy" fill="#8EABE0"></path>
            <path d="M54.4771299,217.705237 C48.6118963,220.825746 35.5594915,226.084556 34.5778772,233.01764 C34.329688,234.770586 38.9931351,234.329064 40.6735679,235.539789 C44.3158169,238.163969 48.7135051,240.719897 50.2995813,244.344869 C73.9271001,298.345483 3.16699977,193.859066 65.3740596,283.388804 C65.7910161,283.988897 67.434206,283.882743 68.0453371,283.388804 L83.9435574,274.718358 C91.1456478,268.897357 93.9113823,259.83126 102.660152,255.411805 C112.829464,250.27476 126.231133,250.561526 137.763328,247.531213 C148.538092,244.699931 161.946634,244.350715 169.506814,237.846522 C174.120155,233.87756 168.885948,227.199153 167.423923,222.013533 C166.748437,219.617669 166.374614,215.138859 163.181652,215.411967 C158.182234,215.839589 156.434526,221.233575 152.208232,223.314998 C144.539447,227.091826 136.219042,230.087562 127.82547,232.824664 C94.2049826,243.788136 126.613149,230.936832 87.2385253,237.411205 C81.5675433,238.343685 76.6857606,245.633648 71.6933373,243.37999 C64.4395931,240.105537 65.5038707,231.380439 61.4200981,225.756366 C60.1024503,223.941733 57.5955817,222.80638 55.6833235,221.331386 L54.4771299,217.705237 Z" id="Path-9-Copy" stroke="#979797" stroke-width="1.2" fill="#FFFFFF"></path>
            <path d="M66.712295,248.752263 C66.0345761,244.18548 62.6197997,225.858776 57.7435543,233.494737 C54.6043843,238.410523 58.8183346,247.076656 59.5909704,249.103169 C60.6621163,251.912632 63.3630552,258.12272 63.4767366,259.988377 C63.7568709,264.585737 59.4793808,262.992616 57.7435543,266.400763 C57.0267738,267.808101 57.0246143,269.598206 57.4184503,271.127672 C58.1917277,274.130702 59.7109992,276.902962 61.1545656,279.647459 C61.743027,280.766238 62.2871815,282.21796 63.4767366,282.64564 C65.3641269,283.324213 67.6536679,283.443661 69.4937399,282.64564 C75.5562797,280.016377 83.4099829,275.916716 81.7914609,271.127672 C80.9248902,268.563576 74.2679686,265.673865 74.7260902,262.99235 C74.9609943,261.61739 78.0414488,258.206665 78.6224525,257.029513 C81.7899332,250.611987 103.586194,256.56524 93.5013986,238.252736 C89.1818822,230.409131 73.9182993,253.756197 69.4937399,248.752263" id="Path-11-Copy" fill="#E56363"></path>
            <path d="M78.7355274,253.884123 C73.1234022,248.151383 52.2367144,245.646319 65.3191514,262.010303 C70.7276166,268.775407 76.8955072,255.47742 79.0838961,254.699395" id="Path-13-Copy" stroke="#F4B2B2" stroke-width="1.2"></path>
            <path d="M1.81716901,164.611564 C35.4153689,153.472898 36.4444725,138.940935 61.2773008,107.968916 C72.3468212,94.1627802 85.4174599,89.4198491 92.0826233,68.9791764 C99.7978414,45.3182038 92.4792634,35.4831748 84.1260747,17.5053318 C78.749086,5.93290578 77.1873957,-2.24084646 60.2924281,0.549222827 C46.6576821,2.80089248 37.4006348,32.533742 36.0508459,43.0171836 C34.6879473,53.602445 34.3854315,64.4272861 35.5895764,75.0317802 C36.3452915,81.6871054 37.2696959,85.8257659 36.0508459,92.3151587 C35.5895764,94.7710466 34.8953053,94.7710466 31.8544056,97.5479377 C29.5886688,99.6169649 15.449398,111.804245 14.6389265,113.309864 C4.88911399,131.422174 16.0592825,124.284968 14.6389265,128.915159 C14.1014891,130.66714 9.57013468,137.639992 8.02935388,138.632097 C1.63974182,142.746356 5.88418203e-14,149.075564 1,156.185261 L1.81716901,164.611564 Z" id="Path-5-Copy-7" fill="#EDC191"></path>
            <path d="M77.0218792,67.8047677 C77.0218792,59.3924762 78.8602321,50.8612802 77.0218792,42.5678948 C70.1517834,11.5747431 38.6584349,63.1098041 48.6306768,70.6896563 C51.7542986,73.0639059 54.5759,65.3307836 58.6938492,64.1455392 C62.9213234,62.9287708 67.7223744,63.9787098 72.2366375,63.8952952" id="Path-16-Copy-9" fill="#FFD7EB"></path>
            <circle id="Oval-Copy-53" stroke="#979797" stroke-width="1.2" fill="#FFFFFF" cx="53.5260747" cy="129.515159" r="22.8"></circle>
            <ellipse id="Oval-Copy-56" stroke="#979797" stroke-width="1.2" fill="#ACC1E1" cx="55.9260747" cy="128.915159" rx="14.4" ry="16.2"></ellipse>
            <path d="M129.885339,78.638239 C133.160502,72.872636 138.470481,66.6648094 146.47772,58.4595276 C168.652051,35.7367605 204.001617,15.4169953 207.329365,60.6754731 C208.149236,71.8259876 206.809873,83.192552 205.297737,94.2704398 C202.967283,111.343302 190.533231,119.665506 187.566065,135.93747 C187.134901,138.301972 190.549903,140.649416 190.898469,141.692327 C191.180109,142.534992 192.259335,142.71905 192.648045,143.10856 C194.732635,145.197441 196.898761,142.829131 192.648045,153.337846 C189.903857,160.122089 180.138585,175.02922 174.756944,174.205434 C174.761884,174.97501 177.750822,178.629296 176.219675,184.92541 C176.222338,189.51432 169.51247,188.051104 166.279052,187.468791 C165.146939,187.264907 164.099443,186.487238 164.047609,187.468791 C163.948864,189.338681 166.250465,190.694963 167.302538,192.253603 C169.415753,195.384318 171.628441,198.00659 172.258733,200.277454 C173.336147,204.159238 172.604355,209.443208 171.36834,211.152316 C170.4236,212.458662 168.997984,213.61643 167.99648,214.220066 C161.684772,218.024315 151.582538,214.923711 149.475505,214.220066 C135.531512,209.563464 132.734742,180.108093 132.026141,169.790394 C130.160442,142.624579 129.618278,115.38404 128.414346,88.180861 L129.885339,78.638239 Z" id="Path-7-Copy-3" fill="#EDC191"></path>
            <path d="M187.630902,54.8296613 C172.290949,54.8296613 168.586656,57.7850259 163.267432,73.1700086 C161.33724,78.7527715 153.049465,90.3897572 158.956404,90.3586953 L160.132698,93.2840361 C164.032574,93.2635285 168.067654,86.2175834 172.930295,89.9091166 C175.04045,91.5110673 172.778268,97.8880064 175.39374,97.4657338 L175.39374,111.482735 C181.465089,110.502505 182.847084,101.544177 185.235202,95.8768119 C193.504307,76.2529777 198.077543,67.813316 181.195152,59.0544693" id="Path-15-Copy-9" fill="#FFD7EB"></path>
            <circle id="Oval-Copy-52" stroke="#979797" stroke-width="1.2" fill="#FFFFFF" cx="127.926075" cy="145.115159" r="22.8"></circle>
            <ellipse id="Oval-Copy-57" stroke="#979797" stroke-width="1.2" fill="#ACC1E1" cx="127.926075" cy="145.715159" rx="14.4" ry="16.2"></ellipse>
            <path d="M90.2675795,153.766116 C79.7543275,156.144826 62.7017443,150.882533 58.7278235,160.902247 L55.8224519,162.957723 C46.0176142,187.679322 56.2479468,194.698642 79.0760016,200.298588 C88.3657373,192.019965 96.3298501,189.328133 102.96834,192.223093" id="Path-2-Copy-8" stroke="#979797" stroke-width="1.2"></path>
            <ellipse id="Oval-Copy-59" stroke="#979797" stroke-width="2.4" fill="#EDC191" transform="translate(60.762259, 90.909947) scale(-1, 1) rotate(24.000000) translate(-60.762259, -90.909947) " cx="60.7622591" cy="90.9099466" rx="11.4" ry="4.2"></ellipse>
            <ellipse id="Oval-Copy-55" stroke="#979797" stroke-width="2.4" fill="#EDC191" transform="translate(143.562259, 108.909947) rotate(44.000000) translate(-143.562259, -108.909947) " cx="143.562259" cy="108.909947" rx="11.4" ry="4.2"></ellipse>
        </g>
    </g>
</svg>